<svg xmlns="http://www.w3.org/2000/svg" viewBox="0 0 315 250" width="315" height="250">
<defs><linearGradient id="g" x1="0" y1="0" x2="0" y2="1"><stop offset="0" stop-color="#1a0a14"/><stop offset="1" stop-color="#4a1020"/></linearGradient></defs>
<rect width="315" height="250" fill="url(#g)"/>
<circle cx="250" cy="55" r="26" fill="#f2d98a" opacity=".85"/>
<rect y="200" width="315" height="50" fill="#120a0a"/>
<g fill="#3d7a3a" stroke="#0e2a0e" stroke-width="3"><rect x="105" y="70" width="105" height="130" rx="18"/><rect x="85" y="100" width="22" height="70" rx="10"/><rect x="208" y="100" width="22" height="70" rx="10"/></g>
<g fill="#ffdf40"><circle cx="135" cy="105" r="9"/><circle cx="180" cy="105" r="9"/></g>
<g fill="#111"><circle cx="135" cy="105" r="3.5"/><circle cx="180" cy="105" r="3.5"/></g>
<rect x="132" y="140" width="52" height="14" rx="4" fill="#2a0a0a"/>
<g fill="#fff"><polygon points="138,140 144,140 141,150"/><polygon points="150,140 156,140 153,150"/><polygon points="162,140 168,140 165,150"/><polygon points="174,140 180,140 177,150"/></g>
<g fill="#4ad0ff"><circle cx="40" cy="170" r="7"/><circle cx="270" cy="150" r="7"/><circle cx="60" cy="210" r="7"/></g>
<text x="157" y="237" fill="#ff5a3c" font-family="Impact,Arial Black,sans-serif" font-size="22" text-anchor="middle">MONSTER SHOOTER</text>
</svg>
